<?xml version="1.0" encoding="iso-8859-1"?>
<!-- Uploaded to: SVG Repo, www.svgrepo.com, Generator: SVG Repo Mixer Tools -->
<svg fill="#fff" height="800px" width="800px" version="1.1" id="Layer_1" xmlns="http://www.w3.org/2000/svg" xmlns:xlink="http://www.w3.org/1999/xlink" 
	 viewBox="0 0 512 512" xml:space="preserve">
<g>
	<g>
		<g>
			<circle cx="256" cy="289.534" r="49.956"/>
			<path d="M493.887,271.418h-75.1c-2.634-32.815-12.405-63.902-28.427-90.721l46.615-46.615c7.074-7.074,7.074-18.543,0-25.616
				c-7.073-7.074-18.542-7.074-25.616,0l-42.745,42.744c-13.744-15.243-29.374-27.386-46.282-36.12
				c9.854-42.798-22.867-83.336-66.333-83.336c-43.518,0-76.176,40.584-66.333,83.336c-16.908,8.734-32.537,20.877-46.282,36.12
				l-42.745-42.744c-7.073-7.074-18.542-7.073-25.616,0c-7.074,7.073-7.074,18.542,0,25.616l46.615,46.615
				c-16.022,26.817-25.793,57.905-28.427,90.721h-75.1C8.11,271.418,0,279.528,0,289.531s8.11,18.113,18.113,18.113h75.1
				c2.632,32.792,12.391,63.86,28.393,90.665l-46.625,46.626c-7.074,7.074-7.074,18.542,0,25.616c7.073,7.074,18.542,7.074,25.616,0
				l42.746-42.746c62.373,69.226,161.692,70.614,225.315,0l42.746,42.746c7.074,7.074,18.542,7.074,25.616,0
				c7.074-7.074,7.074-18.542,0-25.616l-46.625-46.626c16.002-26.805,25.761-57.873,28.393-90.665h75.099
				c10.003,0,18.113-8.11,18.113-18.113C512,279.528,503.89,271.418,493.887,271.418z M256,67.981
				c18.596,0,33.259,15.946,31.739,34.434c-20.883-4.744-42.576-4.748-63.477,0C222.741,83.937,237.393,67.981,256,67.981z
				 M367.68,363.576c-39.209-9.482-72.624,28.981-58.484,66.252c-33.648,18.859-72.669,18.899-106.391,0
				c14.219-37.479-19.501-75.679-58.485-66.252c-20.802-46.01-20.845-101.985,0-148.088c38.981,9.426,72.703-28.773,58.485-66.252
				c34.382-19.27,73.429-18.474,106.391,0c-14.136,37.259,19.265,75.736,58.484,66.252
				C388.482,261.498,388.525,317.471,367.68,363.576z"/>
		</g>
	</g>
</g>
</svg>